<svg xmlns="http://www.w3.org/2000/svg" viewBox="0 0 48.25 48.25"><defs><style>.cls-1,.cls-3{fill:#1475be;}.cls-1{stroke:#fff;stroke-miterlimit:10;stroke-width:0.25px;}.cls-2{fill:#fff;}</style></defs><title>Asset 3</title><g id="Layer_2" data-name="Layer 2"><g id="Layer_1-2" data-name="Layer 1"><circle class="cls-1" cx="24.13" cy="24.13" r="24"/><path class="cls-2" d="M10.84,34.63a2.65,2.65,0,0,1-2.71-2.57V17.19a2.64,2.64,0,0,1,2.71-2.56H37.41a2.65,2.65,0,0,1,2.72,2.56V32.06a2.66,2.66,0,0,1-2.72,2.57Z"/><path class="cls-3" d="M11.28,33.32a1.58,1.58,0,0,1-1.65-1.51V17.44a1.58,1.58,0,0,1,1.65-1.51H37a1.59,1.59,0,0,1,1.66,1.51V31.81A1.59,1.59,0,0,1,37,33.32Z"/><polyline class="cls-2" points="18.29 15.13 18.29 11.13 29.96 11.13 29.96 15.13 28.96 15.13 28.96 11.79 19.26 11.79 19.26 15.13"/></g></g></svg>