<svg xmlns="http://www.w3.org/2000/svg" xmlns:xlink="http://www.w3.org/1999/xlink" width="312" height="486" viewBox="0 0 312 486">
  <defs>
    <clipPath id="clip-path">
      <path id="Antenna" d="M0,39.705v-13H12.088l2.091-4.437L8.129,11.836,11.354,0l2.894.788-2.9,10.626L17.544,22.09,15.568,26.7H24v13Z" transform="translate(0 0.295)" fill="#e6e6e6"/>
    </clipPath>
    <clipPath id="clip-path-2">
      <path id="Round_and_Soft" data-name="Round and Soft" d="M0-89c0,.02.014-.184,0-1,.183-.476.4-1.5,1-3a24.578,24.578,0,0,1,6-10c9.694-10.4,28.172-17,58-17s48.306,6.6,58,17a24.579,24.579,0,0,1,6,10c.6,1.5.817,2.524,1,3-.014.816,0,1.02,0,1v39a9.411,9.411,0,0,0,0,1,53.914,53.914,0,0,1-1,6,44.137,44.137,0,0,1-7,17C112.283-9.663,94.255,0,65,0S17.716-9.662,8-26A44.143,44.143,0,0,1,1-43a53.945,53.945,0,0,1-1-6,7.785,7.785,0,0,0,0-1Z" transform="translate(0 120)" fill="rgba(98,0,234,0)"/>
    </clipPath>
    <clipPath id="clip-path-3">
      <path id="Robot_Body" data-name="Robot Body" d="M167,328V288a16,16,0,0,1,16-16V184.751A18,18,0,0,1,168,167V148.15a85.084,85.084,0,0,1-24,0V167a18,18,0,0,1-16,17.89V272h1a16,16,0,0,1,16,16v40H72V302a30,30,0,0,1,30-30h8V185h-4a10,10,0,0,1-10-10V145a8,8,0,0,1,8-8h8.707A83.958,83.958,0,0,1,72,65V55H60v8.077A4.923,4.923,0,0,1,55.077,68H44v68.891A36.015,36.015,0,0,1,72,172v44.6a2.4,2.4,0,0,1-2.4,2.4H64v10a2,2,0,0,1-2,2H10a2,2,0,0,1-2-2V219H2.4A2.4,2.4,0,0,1,0,216.6V172a36.015,36.015,0,0,1,28-35.108V68H16.923A4.923,4.923,0,0,1,12,63.076,43.077,43.077,0,0,1,55.077,20,4.923,4.923,0,0,1,60,24.923V33H72V29.76A11.76,11.76,0,0,1,83.76,18H141V0h30V18h57.24A11.76,11.76,0,0,1,240,29.76V33h12V24.923A4.923,4.923,0,0,1,256.923,20,43.077,43.077,0,0,1,300,63.076,4.923,4.923,0,0,1,295.077,68H284v68.891A36.015,36.015,0,0,1,312,172v44.6a2.4,2.4,0,0,1-2.4,2.4H304v10a2,2,0,0,1-2,2H250a2,2,0,0,1-2-2V219h-5.6a2.4,2.4,0,0,1-2.4-2.4V172a36.015,36.015,0,0,1,28-35.108V68H256.923A4.923,4.923,0,0,1,252,63.076V55H240V65a83.957,83.957,0,0,1-40.709,72H208a8,8,0,0,1,8,8v30a10,10,0,0,1-10,10h-5v87h9a30,30,0,0,1,30,30v26Z" fill="rgba(0,0,0,0.1)"/>
    </clipPath>
  </defs>
  <g id="Group_1" data-name="Group 1" transform="translate(-804 -219)">
    <g id="Top_Antenna_Crooked" data-name="Top/Antenna Crooked" transform="translate(910 219)">
      <g id="Antenna-2" data-name="Antenna" transform="translate(38 12)">
        <path id="Antenna-3" data-name="Antenna" d="M0,39.705v-13H12.088l2.091-4.437L8.129,11.836,11.354,0l2.894.788-2.9,10.626L17.544,22.09,15.568,26.7H24v13Z" transform="translate(0 0.295)" fill="#e6e6e6"/>
        <g id="Antenna-4" data-name="Antenna" clip-path="url(#clip-path)">
          <g id="_Color_Top" data-name="↳ Color Top" transform="translate(-38 -12)">
            <rect id="_Color_Top_background" data-name="↳ Color Top background" width="100" height="52" fill="rgba(0,0,0,0)"/>
            <rect id="Color_19-Blue_Grey_300" data-name="Color/19-Blue Grey/300" width="100" height="52" fill="#90a4ae"/>
          </g>
          <rect id="Lite" width="24" height="13" transform="translate(0 27)" fill="rgba(255,255,255,0.2)"/>
        </g>
      </g>
      <circle id="Beep_Boop" data-name="Beep Boop" cx="8" cy="8" r="8" transform="translate(42)" fill="#ffe65c"/>
      <circle id="Beep_Boop-2" data-name="Beep Boop" cx="3" cy="3" r="3" transform="translate(50 2)" fill="#fff"/>
    </g>
    <g id="Face_Round_02" data-name="Face/Round 02" transform="translate(895 257)">
      <path id="Round_and_Soft-2" data-name="Round and Soft" d="M0-89c0,.02.014-.184,0-1,.183-.476.4-1.5,1-3a24.578,24.578,0,0,1,6-10c9.694-10.4,28.172-17,58-17s48.306,6.6,58,17a24.579,24.579,0,0,1,6,10c.6,1.5.817,2.524,1,3-.014.816,0,1.02,0,1v39a9.411,9.411,0,0,0,0,1,53.914,53.914,0,0,1-1,6,44.137,44.137,0,0,1-7,17C112.283-9.663,94.255,0,65,0S17.716-9.662,8-26A44.143,44.143,0,0,1,1-43a53.945,53.945,0,0,1-1-6,7.785,7.785,0,0,0,0-1Z" transform="translate(0 120)" fill="#e1e6e8"/>
      <g clip-path="url(#clip-path-2)">
        <g id="_Color_Face" data-name="↳ Color Face" transform="translate(-4 -2)">
          <rect id="_Color_Face_background" data-name="↳ Color Face background" width="138" height="124" fill="rgba(98,0,234,0)"/>
          <rect id="Color_19-Blue_Grey_200" data-name="Color/19-Blue Grey/200" width="138" height="124" fill="rgba(98,0,234,0)"/>
        </g>
      </g>
    </g>
    <g id="Frame_Torpedo" data-name="Frame/Torpedo" transform="translate(800 377)">
      <g id="Body_Stuff" data-name="Body Stuff" transform="translate(4)">
        <path id="Robot_Body-2" data-name="Robot Body" d="M167,328V288a16,16,0,0,1,16-16V184.751A18,18,0,0,1,168,167V148.15a85.084,85.084,0,0,1-24,0V167a18,18,0,0,1-16,17.89V272h1a16,16,0,0,1,16,16v40H72V302a30,30,0,0,1,30-30h8V185h-4a10,10,0,0,1-10-10V145a8,8,0,0,1,8-8h8.707A83.958,83.958,0,0,1,72,65V55H60v8.077A4.923,4.923,0,0,1,55.077,68H44v68.891A36.015,36.015,0,0,1,72,172v44.6a2.4,2.4,0,0,1-2.4,2.4H64v10a2,2,0,0,1-2,2H10a2,2,0,0,1-2-2V219H2.4A2.4,2.4,0,0,1,0,216.6V172a36.015,36.015,0,0,1,28-35.108V68H16.923A4.923,4.923,0,0,1,12,63.076,43.077,43.077,0,0,1,55.077,20,4.923,4.923,0,0,1,60,24.923V33H72V29.76A11.76,11.76,0,0,1,83.76,18H141V0h30V18h57.24A11.76,11.76,0,0,1,240,29.76V33h12V24.923A4.923,4.923,0,0,1,256.923,20,43.077,43.077,0,0,1,300,63.076,4.923,4.923,0,0,1,295.077,68H284v68.891A36.015,36.015,0,0,1,312,172v44.6a2.4,2.4,0,0,1-2.4,2.4H304v10a2,2,0,0,1-2,2H250a2,2,0,0,1-2-2V219h-5.6a2.4,2.4,0,0,1-2.4-2.4V172a36.015,36.015,0,0,1,28-35.108V68H256.923A4.923,4.923,0,0,1,252,63.076V55H240V65a83.957,83.957,0,0,1-40.709,72H208a8,8,0,0,1,8,8v30a10,10,0,0,1-10,10h-5v87h9a30,30,0,0,1,30,30v26Z" fill="rgba(0,0,0,0.1)"/>
        <g id="Body_Stuff-2" data-name="Body Stuff" clip-path="url(#clip-path-3)">
          <g id="_Color_Body" data-name="↳ Color Body" transform="translate(-4)">
            <rect id="_Color_Body_background" data-name="↳ Color Body background" width="320" height="328" fill="rgba(0,0,0,0)"/>
            <rect id="Color_18-Grey_200" data-name="Color/18-Grey/200" width="320" height="328" fill="#eee"/>
          </g>
          <circle id="Shadow" cx="16" cy="16" r="16" transform="translate(4 8)" fill="rgba(0,0,0,0.1)"/>
          <circle id="Shadow-2" data-name="Shadow" cx="16" cy="16" r="16" transform="translate(276 8)" fill="rgba(0,0,0,0.1)"/>
          <rect id="Union_Shadow" data-name="Union Shadow" width="16" height="69" transform="translate(28 68)" fill="rgba(0,0,0,0.6)"/>
          <rect id="Torpedo_Launcher_Shadow" data-name="Torpedo Launcher Shadow" width="64" height="12" transform="translate(4 219)" fill="rgba(0,0,0,0.4)"/>
          <rect id="Torpedo_Launcher_Shadow-2" data-name="Torpedo Launcher Shadow" width="64" height="12" transform="translate(244 219)" fill="rgba(0,0,0,0.4)"/>
          <rect id="Union_Shadow-2" data-name="Union Shadow" width="16" height="69" transform="translate(268 68)" fill="rgba(0,0,0,0.6)"/>
          <rect id="Foot_Shade" data-name="Foot Shade" width="75" height="8" transform="translate(71 320)" fill="rgba(0,0,0,0.4)"/>
          <rect id="Foot_Shade-2" data-name="Foot Shade" width="77" height="8" transform="translate(165 320)" fill="rgba(0,0,0,0.4)"/>
          <rect id="Body_Shade" data-name="Body Shade" width="30" height="18" transform="translate(141)" fill="rgba(0,0,0,0.6)"/>
          <rect id="Body_Shade-2" data-name="Body Shade" width="12" height="22" transform="translate(60 33)" fill="rgba(0,0,0,0.6)"/>
          <rect id="Body_Shade-3" data-name="Body Shade" width="12" height="22" transform="translate(240 33)" fill="rgba(0,0,0,0.6)"/>
          <rect id="Body_Shade-4" data-name="Body Shade" width="8" height="24" rx="4" transform="translate(272 33)" fill="rgba(255,255,255,0.6)"/>
          <rect id="Body_Shade-5" data-name="Body Shade" width="16" height="16" rx="8" transform="translate(268 171)" fill="rgba(255,255,255,0.2)"/>
          <g id="Lighs" transform="translate(30 155)">
            <rect id="Body_Shade-6" data-name="Body Shade" width="12" height="12" rx="4" fill="rgba(255,255,255,0.2)"/>
            <rect id="Body_Shade-7" data-name="Body Shade" width="12" height="12" rx="4" transform="translate(0 16)" fill="rgba(255,255,255,0.6)"/>
            <rect id="Body_Shade-8" data-name="Body Shade" width="12" height="12" rx="4" transform="translate(0 32)" fill="rgba(255,255,255,0.8)"/>
          </g>
          <rect id="Body_Shade-9" data-name="Body Shade" width="4" height="4" rx="2" transform="translate(207 84)" fill="rgba(255,255,255,0.2)"/>
          <rect id="Body_Shade-10" data-name="Body Shade" width="4" height="4" rx="2" transform="translate(207 96)" fill="rgba(255,255,255,0.8)"/>
          <rect id="Body_Shade-11" data-name="Body Shade" width="4" height="4" rx="2" transform="translate(219 84)" fill="rgba(255,255,255,0.4)"/>
          <rect id="Body_Shade-12" data-name="Body Shade" width="8" height="24" rx="4" transform="translate(513 69)" fill="rgba(255,255,255,0.6)"/>
          <rect id="Leg_Shade" data-name="Leg Shade" width="18" height="87" transform="translate(110 185)" fill="rgba(0,0,0,0.6)"/>
          <rect id="Leg_Shade-2" data-name="Leg Shade" width="18" height="87" transform="translate(183 185)" fill="rgba(0,0,0,0.6)"/>
        </g>
      </g>
      <g id="Leg_Stripes" data-name="Leg Stripes" transform="translate(114 185)">
        <rect id="Stripe" width="18" height="8" transform="translate(0 0.333)" fill="rgba(0,0,0,0.2)"/>
        <rect id="Stripe-2" data-name="Stripe" width="18" height="8" transform="translate(0 17.4)" fill="rgba(0,0,0,0.2)"/>
        <rect id="Stripe-3" data-name="Stripe" width="18" height="8" transform="translate(0 34.467)" fill="rgba(0,0,0,0.2)"/>
        <rect id="Stripe-4" data-name="Stripe" width="18" height="8" transform="translate(0 51.533)" fill="rgba(0,0,0,0.2)"/>
        <rect id="Stripe-5" data-name="Stripe" width="18" height="8" transform="translate(0 68.6)" fill="rgba(0,0,0,0.2)"/>
      </g>
      <g id="Leg_Stripes-2" data-name="Leg Stripes" transform="translate(187 186)">
        <rect id="Stripe-6" data-name="Stripe" width="18" height="8" transform="translate(0 0.333)" fill="rgba(0,0,0,0.2)"/>
        <rect id="Stripe-7" data-name="Stripe" width="18" height="8" transform="translate(0 17.4)" fill="rgba(0,0,0,0.2)"/>
        <rect id="Stripe-8" data-name="Stripe" width="18" height="8" transform="translate(0 34.467)" fill="rgba(0,0,0,0.2)"/>
        <rect id="Stripe-9" data-name="Stripe" width="18" height="8" transform="translate(0 51.533)" fill="rgba(0,0,0,0.2)"/>
        <rect id="Stripe-10" data-name="Stripe" width="18" height="8" transform="translate(0 68.6)" fill="rgba(0,0,0,0.2)"/>
      </g>
      <g id="Body_Indicators" data-name="Body Indicators" transform="translate(96 44)">
        <rect id="Indicator" width="18" height="4" rx="2" fill="rgba(0,0,0,0.2)"/>
        <rect id="Indicator-2" data-name="Indicator" width="18" height="4" rx="2" transform="translate(0 16)" fill="rgba(0,0,0,0.4)"/>
        <rect id="Indicator-3" data-name="Indicator" width="18" height="4" rx="2" transform="translate(0 8)" fill="rgba(0,0,0,0.2)"/>
        <rect id="Indicator-4" data-name="Indicator" width="18" height="4" rx="2" transform="translate(0 24)" fill="rgba(0,0,0,0.2)"/>
      </g>
      <g id="Group" transform="translate(128 32)">
        <circle id="I_Am_Iron_Man" data-name="I Am Iron Man" cx="32" cy="32" r="32" fill="rgba(255,255,255,0.2)"/>
        <circle id="I_Am_Iron_Man-2" data-name="I Am Iron Man" cx="28" cy="28" r="28" transform="translate(4 4)" fill="rgba(255,255,255,0.4)"/>
        <circle id="I_Am_Iron_Man-3" data-name="I Am Iron Man" cx="24" cy="24" r="24" transform="translate(8 8)" fill="rgba(0,0,0,0.6)"/>
        <path id="I_Am_Iron_Man-4" data-name="I Am Iron Man" d="M16,0A16,16,0,1,1,0,16,16,16,0,0,1,16,0Z" transform="translate(16 16)" fill="rgba(98,0,234,0.6)"/>
        <circle id="I_Am_Iron_Man-5" data-name="I Am Iron Man" cx="8" cy="8" r="8" transform="translate(24 24)" fill="rgba(255,255,255,0.8)"/>
      </g>
      <rect id="Shadow_Body" data-name="Shadow Body" width="32" height="4" rx="2" transform="translate(144 110)" fill="rgba(0,0,0,0.2)"/>
    </g>
    <g id="Eyes_Bulging_" data-name="Eyes/Bulging 😳" transform="translate(909 280)">
      <circle id="Container" cx="18" cy="18" r="18" transform="translate(10 6)" fill="rgba(0,0,0,0.2)"/>
      <circle id="Container-2" data-name="Container" cx="18" cy="18" r="18" transform="translate(56 6)" fill="rgba(0,0,0,0.2)"/>
      <circle id="Cornea" cx="15" cy="15" r="15" transform="translate(13 9)" fill="#f1eeda"/>
      <circle id="Cornea-2" data-name="Cornea" cx="15" cy="15" r="15" transform="translate(59 9)" fill="#f1eeda"/>
      <rect id="Iris" width="10" height="10" rx="2" transform="translate(26 15)" fill="rgba(0,0,0,0.8)"/>
      <rect id="Iris-2" data-name="Iris" width="10" height="10" rx="2" transform="translate(74 15)" fill="rgba(0,0,0,0.8)"/>
    </g>
    <g id="Mouth_Smile_01" data-name="Mouth/Smile 01" transform="translate(922 337)">
      <path id="Thank_You_For_Your_Cooperation" data-name="Thank You For Your Cooperation" d="M.05,2.442a2,2,0,0,1,3.9-.883A6.809,6.809,0,0,0,11,7,6.809,6.809,0,0,0,18.05,1.559a2,2,0,0,1,3.9.883A10.8,10.8,0,0,1,11,11,10.8,10.8,0,0,1,.05,2.442Z" transform="translate(27 6)" fill="rgba(0,0,0,0.6)"/>
    </g>
  </g>
</svg>
